#!OML:ASF E:\motion texture\Top Level 1\Subject 1\Session 1\male.ASF
:FULLY-SPECIFIED
:DEGREES
174
root 9.22756 17.3122 5.2811 210.302 -85.848 -203.317
lowerback 0.330118 -2.62008 -2.74555
upperback -0.683244 -3.52011 3.00683
thorax -0.532424 -1.75176 4.65465
lowerneck -19.1341 -2.90848 -5.50494
upperneck 7.91553 -4.09324 11.109
head 5.87046 -1.35439 4.02589
rclavicle -2.5345e-014 4.77083e-015
rhumerus -55.4571 -42.2653 -46.8875
rradius 15.9235
rwrist 33.6643
rhand 2.19404 -18.0244
rfingers 7.12502
rthumb 27.6901 -46.0059
lclavicle -2.5345e-014 4.77083e-015
lhumerus -52.7824 42.1746 60.2939
lradius 17.1681
lwrist -49.3446
lhand -14.184 21.6288
lfingers 7.12502
lthumb 11.9517 51.2677
rfemur -39.8296 -0.827333 16.3004
rtibia 22.3677
rfoot -5.03579 -14.3658
rtoes 3.19921
lfemur 5.30701 -4.4754 -26.2683
ltibia 15.4418
lfoot -20.4085 3.99789
ltoes -6.51035
175
root 9.07445 17.3085 5.25326 210.914 -86.3128 -203.81
lowerback 0.491276 -2.66842 -2.62789
upperback -0.637865 -3.58831 3.14724
thorax -0.567407 -1.78759 4.74107
lowerneck -19.2215 -2.89347 -5.50525
upperneck 7.41059 -4.00474 10.932
head 5.71176 -1.33483 3.9737
rclavicle -8.74653e-015 7.95139e-015
rhumerus -55.4377 -41.8735 -46.4516
rradius 16.0215
rwrist 33.2771
rhand 0.80171 -18.7112
rfingers 7.12502
rthumb 26.358 -46.8993
lclavicle -8.74653e-015 7.95139e-015
lhumerus -54.4282 42.9939 57.2561
lradius 16.8963
lwrist -50.2105
lhand -14.9421 22.2646
lfingers 7.12502
lthumb 11.2206 51.9446
rfemur -39.8056 -0.797501 16.4341
rtibia 23.1534
rfoot -4.94577 -14.0914
rtoes 3.23303
lfemur 5.49895 -4.71449 -26.002
ltibia 15.8757
lfoot -20.3939 3.86018
ltoes -7.58568
176
root 8.91882 17.3077 5.22381 211.436 -86.8273 -204.189
lowerback 0.626783 -2.71155 -2.48502
upperback -0.620437 -3.64877 3.30546
thorax -0.61788 -1.81919 4.8317
lowerneck -19.308 -2.88899 -5.49802
upperneck 6.94464 -3.9355 10.7377
head 5.56657 -1.32442 3.91327
rclavicle 1.59028e-015 4.77083e-015
rhumerus -55.4651 -41.4913 -45.9503
rradius 16.1694
rwrist 32.7083
rhand -0.7112 -19.49
rfingers 7.12502
rthumb 24.909 -47.8869
lclavicle 1.59028e-015 4.77083e-015
lhumerus -56.0493 43.7398 54.1997
lradius 16.6475
lwrist -51.0747
lhand -15.6093 22.9161
lfingers 7.12502
lthumb 10.577 52.6299
rfemur -39.7291 -0.751885 16.5931
rtibia 23.7611
rfoot -4.54994 -13.9064
rtoes 3.3641
lfemur 5.62981 -4.99456 -25.6722
ltibia 16.3669
lfoot -20.3226 3.68425
ltoes -8.73985
177
root 8.76136 17.3101 5.19345 211.23 -87.3687 -203.816
lowerback 0.741752 -2.73959 -2.29685
upperback -0.625058 -3.68817 3.48157
thorax -0.683284 -1.84018 4.91534
lowerneck -19.4015 -2.89549 -5.48262
upperneck 6.51567 -3.88631 10.5308
head 5.43555 -1.32308 3.84596
rclavicle -2.73329e-014 3.4191e-014
rhumerus -55.5543 -41.1536 -45.3537
rradius 16.3559
rwrist 31.9937
rhand -2.30809 -20.3501
rfingers 7.12502
rthumb 23.3779 -48.9502
lclavicle -2.73329e-014 3.4191e-014
lhumerus -57.5851 44.39 51.2123
lradius 16.44
lwrist -51.7982
lhand -16.1235 23.5686
lfingers 7.12502
lthumb 10.081 53.3071
rfemur -39.6306 -0.677535 16.8051
rtibia 24.208
rfoot -3.80733 -13.8203
rtoes 3.58487
lfemur 5.69287 -5.30945 -25.2702
ltibia 16.928
lfoot -20.189 3.49069
ltoes -10.0105
178
root 8.60246 17.3162 5.16285 209.183 -87.9116 -201.582
lowerback 0.836149 -2.74544 -2.04889
upperback -0.640176 -3.69692 3.67304
thorax -0.753819 -1.84631 4.9806
lowerneck -19.5357 -2.91013 -5.46424
upperneck 6.13268 -3.85343 10.3257
head 5.32694 -1.32723 3.77767
rclavicle 2.19657e-014 -5.32743e-014
rhumerus -55.6883 -40.8818 -44.6687
rradius 16.574
rwrist 31.1693
rhand -3.91691 -21.2805
rfingers 7.12502
rthumb 21.8337 -50.0688
lclavicle 2.19657e-014 -5.32743e-014
lhumerus -58.9845 44.9433 48.3648
lradius 16.2862
lwrist -52.3206
lhand -16.5049 24.1445
lfingers 7.12502
lthumb 9.71309 53.9005
rfemur -39.5281 -0.541766 17.0727
rtibia 24.5212
rfoot -2.75896 -13.8168
rtoes 4.00656
lfemur 5.6833 -5.64161 -24.795
ltibia 17.569
lfoot -19.9823 3.29494
ltoes -11.4365
179
root 8.44213 17.3261 5.13248 203.206 -88.4255 -195.409
lowerback 0.91182 -2.72577 -1.73893
upperback -0.657982 -3.67067 3.87573
thorax -0.823283 -1.83573 5.02158
lowerneck -19.6946 -2.93069 -5.44497
upperneck 5.77823 -3.83294 10.1278
head 5.23239 -1.33563 3.71067
rclavicle 5.17834e-014 -3.02153e-014
rhumerus -55.8674 -40.6903 -43.8886
rradius 16.8079
rwrist 30.2715
rhand -5.52213 -22.2538
rfingers 7.12502
rthumb 20.2917 -51.2138
lclavicle 5.17834e-014 -3.02153e-014
lhumerus -60.2239 45.4073 45.6971
lradius 16.186
lwrist -52.6215
lhand -16.7639 24.6579
lfingers 7.12502
lthumb 9.46318 54.4254
rfemur -39.4189 -0.33476 17.3978
rtibia 24.733
rfoot -1.49298 -13.8487
rtoes 4.70101
lfemur 5.60255 -5.96642 -24.2496
ltibia 18.3104
lfoot -19.7065 3.07768
ltoes -12.9316
180
root 8.2801 17.3398 5.10241 189.531 -88.8451 -181.542
lowerback 0.971741 -2.67877 -1.38515
upperback -0.670791 -3.60734 4.08188
thorax -0.884785 -1.80752 5.04017
lowerneck -19.8763 -2.95331 -5.43288
upperneck 5.44346 -3.81813 9.94718
head 5.14862 -1.34488 3.65019
rclavicle -3.06128e-014 -4.77083e-015
rhumerus -56.0761 -40.584 -43.0244
rradius 17.0466
rwrist 29.3445
rhand -7.08302 -23.2671
rfingers 7.12502
rthumb 18.791 -52.3794
lclavicle -3.06128e-014 -4.77083e-015
lhumerus -61.2322 45.741 43.3315
lradius 16.1569
lwrist -52.6355
lhand -16.9387 25.0813
lfingers 7.12502
lthumb 9.29452 54.8564
rfemur -39.2955 -0.0637817 17.7721
rtibia 24.89
rfoot -0.140687 -13.8423
rtoes 5.72199
lfemur 5.45898 -6.2529 -23.6542
ltibia 19.1574
lfoot -19.364 2.82486
ltoes -14.4561
